<svg 
 xmlns="http://www.w3.org/2000/svg"
 xmlns:xlink="http://www.w3.org/1999/xlink"
 width="26px" height="26px">
<path fill-rule="evenodd"  fill="rgb(209, 209, 209)"
 d="M24.000,26.000 L2.000,26.000 C0.895,26.000 -0.000,25.104 -0.000,24.000 L-0.000,16.000 C-0.000,14.895 0.895,14.000 2.000,14.000 L24.000,14.000 C25.104,14.000 26.000,14.895 26.000,16.000 L26.000,24.000 C26.000,25.104 25.104,26.000 24.000,26.000 ZM24.000,12.000 L2.000,12.000 C0.895,12.000 -0.000,11.105 -0.000,10.000 L-0.000,2.000 C-0.000,0.895 0.895,-0.000 2.000,-0.000 L24.000,-0.000 C25.104,-0.000 26.000,0.895 26.000,2.000 L26.000,10.000 C26.000,11.105 25.104,12.000 24.000,12.000 Z"/>
</svg>