<svg 
 xmlns="http://www.w3.org/2000/svg"
 xmlns:xlink="http://www.w3.org/1999/xlink"
 width="26px" height="26px">
<path fill-rule="evenodd"  fill="rgb(209, 209, 209)"
 d="M24.000,26.000 L2.000,26.000 C0.895,26.000 -0.000,25.104 -0.000,24.000 L-0.000,23.000 C-0.000,21.895 0.895,21.000 2.000,21.000 L24.000,21.000 C25.105,21.000 26.000,21.895 26.000,23.000 L26.000,24.000 C26.000,25.104 25.105,26.000 24.000,26.000 ZM24.000,19.000 L2.000,19.000 C0.895,19.000 -0.000,18.104 -0.000,17.000 L-0.000,16.000 C-0.000,14.895 0.895,14.000 2.000,14.000 L24.000,14.000 C25.105,14.000 26.000,14.895 26.000,16.000 L26.000,17.000 C26.000,18.104 25.105,19.000 24.000,19.000 ZM24.000,12.000 L2.000,12.000 C0.895,12.000 -0.000,11.105 -0.000,10.000 L-0.000,9.000 C-0.000,7.895 0.895,7.000 2.000,7.000 L24.000,7.000 C25.105,7.000 26.000,7.895 26.000,9.000 L26.000,10.000 C26.000,11.105 25.105,12.000 24.000,12.000 ZM23.500,5.000 L2.500,5.000 C1.119,5.000 -0.000,3.881 -0.000,2.500 C-0.000,1.119 1.119,-0.000 2.500,-0.000 L23.500,-0.000 C24.881,-0.000 26.000,1.119 26.000,2.500 C26.000,3.881 24.881,5.000 23.500,5.000 Z"/>
</svg>